HIERARCHY
ROOT Hips
{
	OFFSET 0.000000 0.000000 0.000000
	CHANNELS 6 Xposition Yposition Zposition Zrotation Yrotation Xrotation 
	JOINT LHipJoint
	{
		OFFSET 0.000000 0.000000 0.000000
		CHANNELS 3 Zrotation Yrotation Xrotation
		JOINT LeftUpLeg
		{
			OFFSET 1.363060 -1.794630 0.839290
			CHANNELS 3 Zrotation Yrotation Xrotation
			JOINT LeftLeg
			{
				OFFSET 2.448110 -6.726130 0.000000
				CHANNELS 3 Zrotation Yrotation Xrotation
				JOINT LeftFoot
				{
					OFFSET 2.562200 -7.039590 0.000000
					CHANNELS 3 Zrotation Yrotation Xrotation
					JOINT LeftToeBase
					{
						OFFSET 0.157640 -0.433110 2.322550
						CHANNELS 3 Zrotation Yrotation Xrotation
						End Site
						{
							OFFSET 0.000000 0.000000 0.000000
						}
					}
				}
			}
		}
	}
	JOINT RHipJoint
	{
		OFFSET 0.000000 0.000000 0.000000
		CHANNELS 3 Zrotation Yrotation Xrotation
		JOINT RightUpLeg
		{
			OFFSET -1.305520 -1.794630 0.839290
			CHANNELS 3 Zrotation Yrotation Xrotation
			JOINT RightLeg
			{
				OFFSET -2.542530 -6.985550 0.000000
				CHANNELS 3 Zrotation Yrotation Xrotation
				JOINT RightFoot
				{
					OFFSET -2.568260 -7.056230 0.000000
					CHANNELS 3 Zrotation Yrotation Xrotation
					JOINT RightToeBase
					{
						OFFSET -0.164730 -0.452590 2.363150
						CHANNELS 3 Zrotation Yrotation Xrotation
						End Site
						{
							OFFSET 0.000000 0.000000 0.000000
						}
					}
				}
			}
		}
	}
	JOINT LowerBack
	{
		OFFSET 0.000000 0.000000 0.000000
		CHANNELS 3 Zrotation Yrotation Xrotation
		JOINT Spine
		{
			OFFSET 0.028270 2.035590 -0.193380
			CHANNELS 3 Zrotation Yrotation Xrotation
			JOINT Spine1
			{
				OFFSET 0.056720 2.048850 -0.042750
				CHANNELS 3 Zrotation Yrotation Xrotation
				JOINT Neck
				{
					OFFSET 0.000000 0.000000 0.000000
					CHANNELS 3 Zrotation Yrotation Xrotation
					JOINT Neck1
					{
						OFFSET -0.054170 1.746240 0.172020
						CHANNELS 3 Zrotation Yrotation Xrotation
						JOINT Head
						{
							OFFSET 0.104070 1.761360 -0.123970
							CHANNELS 3 Zrotation Yrotation Xrotation
							End Site
							{
								OFFSET 0.000000 0.000000 0.000000
							}
						}
					}
				}
				JOINT LeftShoulder
				{
					OFFSET 0.000000 0.000000 0.000000
					CHANNELS 3 Zrotation Yrotation Xrotation
					JOINT LeftArm
					{
						OFFSET 3.362410 1.200890 -0.311210
						CHANNELS 3 Zrotation Yrotation Xrotation
						JOINT LeftForeArm
						{
							OFFSET 4.983000 -0.000000 -0.000000
							CHANNELS 3 Zrotation Yrotation Xrotation
							JOINT LeftHand
							{
								OFFSET 3.483560 -0.000000 -0.000000
								CHANNELS 3 Zrotation Yrotation Xrotation
								JOINT LeftFingerBase
								{
									OFFSET 0.000000 0.000000 0.000000
									CHANNELS 3 Zrotation Yrotation Xrotation
									JOINT LeftHandIndex1
									{
										OFFSET 0.715260 -0.000000 -0.000000
										CHANNELS 3 Zrotation Yrotation Xrotation
										End Site
										{
											OFFSET 0.000000 0.000000 0.000000
										}
									}
								}
								JOINT LThumb
								{
									OFFSET 0.000000 0.000000 0.000000
									CHANNELS 3 Zrotation Yrotation Xrotation
									End Site
									{
										OFFSET 0.000000 0.000000 0.000000
									}
								}
							}
						}
					}
				}
				JOINT RightShoulder
				{
					OFFSET 0.000000 0.000000 0.000000
					CHANNELS 3 Zrotation Yrotation Xrotation
					JOINT RightArm
					{
						OFFSET -3.136600 1.374050 -0.404650
						CHANNELS 3 Zrotation Yrotation Xrotation
						JOINT RightForeArm
						{
							OFFSET -5.241900 -0.000000 -0.000000
							CHANNELS 3 Zrotation Yrotation Xrotation
							JOINT RightHand
							{
								OFFSET -3.444170 -0.000000 -0.000000
								CHANNELS 3 Zrotation Yrotation Xrotation
								JOINT RightFingerBase
								{
									OFFSET 0.000000 0.000000 0.000000
									CHANNELS 3 Zrotation Yrotation Xrotation
									JOINT RightHandIndex1
									{
										OFFSET -0.622530 -0.000000 -0.000000
										CHANNELS 3 Zrotation Yrotation Xrotation
										End Site
										{
											OFFSET 0.000000 0.000000 0.000000
										}
									}
								}
								JOINT RThumb
								{
									OFFSET 0.000000 0.000000 0.000000
									CHANNELS 3 Zrotation Yrotation Xrotation
									End Site
									{
										OFFSET 0.000000 0.000000 0.000000
									}
								}
							}
						}
					}
				}
			}
		}
	}
}
MOTION
Frames: 10
Frame Time: 0.008333
-0.706750 17.355306 -31.072467 2.514456 4.064081 19.057268 -2.148891 -1.990235 -1.238569 -20.494472 2.127121 -15.855911 0.554723 9.069795 24.486976 2.669212 -17.063171 -11.960094 0.012749 -0.706481 -1.941708 -0.907329 1.935827 -3.643264 15.000201 6.669879 -46.249052 -1.398585 -12.049519 30.993533 -0.074226 -2.235687 -8.521312 -0.356752 3.823177 -10.581376 -2.941162 -1.105241 -6.235057 0.759423 -1.467193 -10.215869 0.114301 -0.490000 -0.566773 -1.537517 -1.578613 -7.660420 4.579523 -2.450777 10.337069 0.327883 -0.973462 3.039948 13.076220 7.256315 -0.481669 -94.121998 -6.181518 38.331832 17.069522 -34.425357 -4.832265 -0.211572 -0.691349 -0.586841 18.757903 -17.022454 -5.504567 -7.125000 0.000000 0.000000 -5.854727 12.893234 4.424336 -13.652805 -6.575498 1.651410 103.963184 -20.238301 -39.504937 -3.413889 11.669463 -0.064317 -2.048900 -0.257344 47.823555 -15.085883 -36.259343 8.022155 7.125000 0.000000 0.000000 24.040386 -63.952741 -11.363333
-0.706476 17.353056 -30.938861 2.607100 4.435417 19.059133 -2.173306 -1.958412 -1.163634 -20.477188 2.416835 -15.213432 0.476956 8.859421 23.909253 2.645791 -17.504327 -11.560371 0.007907 -0.570647 -1.568158 -0.867471 1.957294 -3.677104 14.855538 6.457902 -46.111555 -1.014678 -11.415728 28.995870 -0.092398 -2.003898 -8.177798 -0.405121 4.054167 -11.233397 -2.910277 -1.167800 -6.101410 0.748021 -1.554208 -10.285431 0.049296 -0.537007 -0.795752 -1.490425 -1.605999 -7.344092 4.591743 -2.500856 10.210144 0.328542 -1.002430 2.919283 13.037210 7.226528 -0.502180 -93.906693 -6.326306 38.961805 17.521132 -34.965313 -5.048122 -0.209952 -0.681220 -0.973785 18.770583 -17.211717 -5.574937 -7.125000 0.000000 0.000000 -5.853074 12.682487 4.449133 -13.613093 -6.558121 1.678125 104.035378 -20.786883 -39.459744 -3.453083 11.758567 -0.083917 -2.021477 -0.261224 47.438859 -15.063147 -35.847531 7.935418 7.125000 0.000000 0.000000 23.660749 -63.596959 -10.984669
-0.705219 17.352052 -30.805255 2.666698 4.853274 19.057483 -2.197641 -1.924575 -1.088720 -20.409331 2.632986 -14.534930 0.392808 8.638209 23.304675 2.613895 -17.834304 -11.140820 0.006078 -0.501445 -1.377896 -0.830303 1.971664 -3.705398 14.729175 6.247307 -45.971190 -0.655277 -10.787497 27.045195 -0.090489 -1.882283 -7.624617 -0.528836 4.657046 -12.933361 -2.815176 -1.242493 -5.925311 0.746636 -1.668220 -10.374324 -0.026115 -0.595846 -1.084191 -1.471238 -1.629562 -6.987821 4.597861 -2.543678 10.076841 0.334736 -1.029450 2.789905 12.996837 7.193763 -0.522636 -93.719759 -6.456281 39.531254 17.949758 -35.468448 -5.254157 -0.210194 -0.671973 -1.369021 18.746409 -17.428496 -5.643195 -7.125000 0.000000 0.000000 -5.876023 12.447979 4.495622 -13.568098 -6.537989 1.704291 104.071677 -21.391554 -39.270521 -3.475718 11.825850 -0.104269 -1.985990 -0.250168 46.990656 -15.253516 -35.196646 7.926097 7.125000 0.000000 0.000000 22.833982 -63.098031 -10.307515
-0.708895 17.350204 -30.672732 2.732119 5.198788 19.128875 -2.218582 -1.897084 -1.041127 -20.341851 2.817076 -13.886646 0.303233 8.411551 22.672604 2.595060 -17.917952 -10.930513 0.017184 -0.803126 -2.207421 -0.798963 1.994351 -3.755565 14.513890 6.218327 -45.802383 -0.350754 -10.173916 25.190079 -0.110428 -1.648385 -7.242346 -0.495182 4.508895 -12.513374 -2.880736 -1.364268 -6.506327 0.795533 -1.789227 -10.186830 0.054093 -0.668434 -0.454391 -1.527711 -1.600369 -6.679090 4.640937 -2.514212 9.741065 0.371433 -1.027550 2.545862 13.019000 7.202905 -0.516953 -93.712337 -7.110588 39.847340 18.290445 -35.933686 -5.437481 -0.211183 -0.664445 -1.767882 18.714585 -17.612880 -5.697615 -7.125000 0.000000 0.000000 -5.902475 12.249847 4.540529 -13.580806 -6.598064 1.735340 104.053068 -21.445098 -38.775776 -3.435948 11.840656 -0.114043 -1.965819 -0.251559 46.291108 -15.347513 -34.582565 7.855828 7.125000 0.000000 0.000000 22.185143 -62.584530 -9.736441
-0.713070 17.347479 -30.539416 2.805967 5.535150 19.200443 -2.240364 -1.865983 -0.988785 -20.279024 2.998760 -13.237299 0.215952 8.185829 22.043757 2.579127 -18.005691 -10.750705 0.031358 -1.125315 -3.093804 -0.770825 2.016653 -3.802499 14.320302 6.159899 -45.670208 -0.067115 -9.572489 23.390017 -0.137623 -1.356738 -6.876109 -0.465541 4.376579 -12.138559 -2.954486 -1.486574 -6.919990 0.846695 -1.915947 -10.046921 0.146911 -0.740512 0.024340 -1.576651 -1.586458 -6.571834 4.651760 -2.496279 9.544396 0.388663 -1.026624 2.414179 13.035296 7.212098 -0.516885 -93.714673 -7.693206 40.123684 18.659112 -36.414612 -5.635476 -0.207995 -0.654422 -2.146665 18.715260 -17.700410 -5.730364 -7.125000 0.000000 0.000000 -5.906108 12.146312 4.556091 -13.584837 -6.639551 1.756242 104.020767 -21.492791 -38.463720 -3.394342 11.818677 -0.118326 -1.950008 -0.249456 45.784459 -15.430721 -34.099564 7.805127 7.125000 0.000000 0.000000 21.670152 -62.183673 -9.288682
-0.718032 17.342391 -30.403738 2.902773 5.854822 19.263383 -2.264930 -1.823943 -0.919682 -20.229227 3.177687 -12.581189 0.135794 7.963420 21.427402 2.569722 -18.135703 -10.630482 0.052537 -1.458818 -4.012605 -0.750959 2.036834 -3.837611 14.198808 5.996010 -45.644554 0.164678 -9.003396 21.732769 -0.182486 -0.916796 -6.533586 -0.466838 4.382597 -12.155549 -3.031187 -1.604486 -6.768673 0.897944 -2.057852 -10.075296 0.255733 -0.809442 -0.036268 -1.594961 -1.622091 -7.024945 4.567307 -2.519794 9.764026 0.347366 -1.032052 2.612641 13.027284 7.216201 -0.535868 -93.722007 -8.008820 40.319976 19.117409 -36.944369 -5.877546 -0.192970 -0.637174 -2.468559 18.808238 -17.519749 -5.703934 -7.125000 0.000000 0.000000 -5.845165 12.304126 4.489367 -13.557271 -6.618769 1.748015 103.956839 -21.592890 -38.703338 -3.355373 11.699857 -0.108496 -1.944536 -0.235980 45.851415 -15.495642 -33.980409 7.817044 7.125000 0.000000 0.000000 21.509152 -62.101256 -9.174289
-0.720357 17.333454 -30.267239 3.027913 6.178722 19.319427 -2.280203 -1.780466 -0.855339 -20.217469 3.227165 -11.852012 0.055153 7.740817 20.818793 2.548196 -18.170354 -10.469562 0.073014 -1.733544 -4.770133 -0.740992 2.053927 -3.874133 14.217578 5.604172 -45.832241 0.355237 -8.481320 20.229936 -0.243930 -0.280548 -6.059414 -0.552622 4.734823 -13.158917 -3.098646 -1.693939 -6.702739 0.918622 -2.161869 -10.096112 0.292906 -0.865487 -0.076792 -1.526604 -1.672548 -7.220136 4.440967 -2.569784 9.831431 0.276446 -1.055756 2.682299 13.016014 7.213873 -0.549270 -93.722280 -8.247892 40.503013 19.580134 -37.472938 -6.123890 -0.180128 -0.621576 -2.678056 18.927376 -17.361857 -5.692299 -7.125000 0.000000 0.000000 -5.767051 12.437806 4.412667 -13.535345 -6.604170 1.749513 103.978554 -21.725910 -39.260573 -3.321132 11.582927 -0.096502 -1.945596 -0.212596 46.221865 -15.618882 -33.970309 7.882418 7.125000 0.000000 0.000000 21.384002 -62.130638 -9.132700
-0.720671 17.321583 -30.130116 3.174659 6.505845 19.370213 -2.288390 -1.735895 -0.794627 -20.234715 3.177939 -11.067123 -0.025856 7.518066 20.216091 2.517427 -18.132294 -10.277612 0.092954 -1.963450 -5.404692 -0.738571 2.068667 -3.911731 14.343299 5.038522 -46.182599 0.514356 -7.995093 18.844844 -0.318018 0.505383 -5.484860 -0.702825 5.351035 -14.914396 -3.159057 -1.761691 -6.701910 0.915992 -2.236995 -10.111164 0.275446 -0.911708 -0.102001 -1.392163 -1.734308 -7.218663 4.282689 -2.639960 9.782762 0.182937 -1.093395 2.653745 13.002260 7.206641 -0.558416 -93.717168 -8.428600 40.675945 20.046235 -38.000601 -6.373495 -0.168951 -0.607237 -2.801850 19.066461 -17.221329 -5.691945 -7.125000 0.000000 0.000000 -5.675844 12.553084 4.328362 -13.517721 -6.594283 1.758427 104.065571 -21.884033 -40.059991 -3.290497 11.467437 -0.082857 -1.951638 -0.181657 46.823729 -15.786592 -34.043364 7.988551 7.125000 0.000000 0.000000 21.286187 -62.245267 -9.146623
-0.723670 17.310697 -29.997102 3.350156 6.759681 19.437251 -2.294033 -1.694624 -0.744804 -20.294408 3.049666 -10.325017 -0.098168 7.324580 19.696103 2.481427 -17.908302 -10.120167 0.131782 -2.318261 -6.386997 -0.734754 2.081958 -3.940029 14.445495 4.503800 -46.390301 0.621888 -7.574657 17.676288 -0.422963 1.670017 -4.927121 -0.529574 4.586301 -12.745661 -3.285958 -1.834739 -6.716841 0.918731 -2.311367 -10.127310 0.324112 -0.949351 -0.130392 -1.356237 -1.729379 -7.082946 4.225485 -2.632619 9.623909 0.154995 -1.095987 2.551185 12.986479 7.194649 -0.567138 -93.729876 -8.665568 40.823223 20.383544 -38.375913 -6.550867 -0.164493 -0.604499 -2.920218 19.236647 -17.371332 -5.796321 -7.125000 0.000000 0.000000 -5.572182 12.374705 4.268915 -13.494213 -6.591141 1.775172 104.103780 -22.181675 -39.857018 -3.274573 11.459341 -0.084785 -1.939126 -0.153044 46.128764 -16.606280 -33.470965 8.312688 7.125000 0.000000 0.000000 19.983126 -61.958885 -8.437110
-0.727809 17.300390 -29.864534 3.516731 6.986590 19.491135 -2.298774 -1.652305 -0.694518 -20.348283 2.953597 -9.586852 -0.168765 7.130289 19.175950 2.442543 -17.683113 -9.936720 0.171638 -2.666351 -7.351393 -0.732497 2.093960 -3.966845 14.620489 3.933330 -46.607294 0.713056 -7.190043 16.614477 -0.531383 2.899618 -4.423406 -0.349721 3.799540 -10.513278 -3.417738 -1.907324 -6.705571 0.927294 -2.385693 -10.142837 0.394079 -0.984761 -0.166433 -1.346602 -1.709333 -6.971034 4.188275 -2.605578 9.478966 0.140130 -1.088314 2.461624 12.971556 7.183000 -0.575833 -93.748101 -8.913886 40.959332 20.699432 -38.724365 -6.717264 -0.159530 -0.602857 -3.062831 19.416553 -17.533287 -5.907499 -7.125000 0.000000 0.000000 -5.462733 12.183866 4.206358 -13.469933 -6.587908 1.789398 104.117961 -22.475706 -39.511321 -3.278773 11.491100 -0.088754 -1.929874 -0.140185 45.369111 -17.257805 -33.066830 8.582064 7.125000 0.000000 0.000000 18.988092 -61.776203 -7.912461
